<svg width="800" height="800" xmlns="http://www.w3.org/2000/svg" style="vector-effect: non-scaling-stroke;" stroke="null"><g stroke="null"><title stroke="null">Layer 1</title><rect style="vector-effect: non-scaling-stroke;" stroke="null" id="svg_1" fill="#f5f5f5" height="1" width="4"/><path stroke="null" id="svg_2" d="m127.13134,374.40004l19.60638,0l0,148.19656l-11.41245,0q-2.64273,0 -4.42915,-1.07972q-1.77166,-1.07972 -3.42521,-3.64178l-62.42151,-98.78551q0.48721,6.77114 0.48721,12.49917l0,91.00784l-19.59161,0l0,-148.19656l11.66343,0q1.40256,0 2.43603,0.1647q1.03347,0.1464 1.81595,0.60391q0.78248,0.47581 1.53544,1.33593q0.73819,0.87842 1.65355,2.30585l62.67249,99.20642q-0.25099,-3.58688 -0.41339,-7.06395q-0.17717,-3.49537 -0.17717,-6.46004l0,-90.09282zm80.53673,41.41378q9.41933,0 17.15558,3.78818q7.72149,3.78818 13.2284,10.76063q5.49215,6.97245 8.47444,17.01936q2.96753,10.02861 2.96753,22.43628q0,12.49917 -2.96753,22.54608q-2.9823,10.04691 -8.47444,17.11087q-5.50691,7.08225 -13.2284,10.87043q-7.73625,3.78818 -17.15558,3.78818q-9.50791,0 -17.28845,-3.78818q-7.76578,-3.78818 -13.25793,-10.87043q-5.50691,-7.06395 -8.51873,-17.11087q-3.02659,-10.04691 -3.02659,-22.54608q0,-12.40766 3.02659,-22.43628q3.01182,-10.04691 8.51873,-17.01936q5.49215,-6.97245 13.25793,-10.76063q7.78054,-3.78818 17.28845,-3.78818m0,88.8484q10.58567,0 15.66443,-8.82079q5.07876,-8.80249 5.07876,-25.82185q0,-17.00106 -5.07876,-25.93165q-5.07876,-8.91229 -15.66443,-8.91229q-10.74807,0 -15.91542,8.96719t-5.16734,25.87675t5.16734,25.78525q5.16734,8.85739 15.91542,8.85739m123.18946,-130.26218l0,148.19656l-22.32292,0l0,-148.19656l22.32292,0zm43.89289,148.19656l-20.41839,0l0,-105.15405l12.49021,0q3.97147,0 5.21163,4.6117l1.31398,7.79597q2.22934,-3.07447 4.68014,-5.63652q2.43603,-2.56205 5.19687,-4.41039q2.7756,-1.84834 5.96459,-2.90976q3.17423,-1.07972 6.9833,-1.07972q8.01676,0 13.18411,5.38031t7.73625,14.29261q1.97835,-5.23391 4.96065,-8.96719q2.96753,-3.73328 6.52562,-6.09403t7.55908,-3.49537q4.01576,-1.11632 8.06106,-1.11632q7.02759,0 12.49021,2.65356q5.46262,2.67186 9.18311,7.79597t5.65455,12.49917q1.94883,7.37506 1.94883,16.90956l0,66.92453l-20.41839,0l0,-66.92453q0,-10.04691 -3.55808,-15.11612t-10.42327,-5.06921q-3.1447,0 -5.83172,1.33593t-4.70966,3.84308t-3.17423,6.29533q-1.16634,3.78818 -1.16634,8.71099l0,66.92453l-20.50697,0l0,-66.92453q0,-10.55933 -3.42521,-15.37233t-10.03941,-4.813q-4.47344,0 -8.31204,2.70846q-3.85336,2.72676 -7.16046,7.42996l0,76.97144zm162.87466,-27.15778l0,-17.73308q-8.84354,0.51241 -14.88195,1.90324q-6.02365,1.37253 -9.67031,3.53198q-3.6319,2.15945 -5.21163,5.01431q-1.56497,2.87316 -1.56497,6.25873q0,6.66134 3.18899,9.5345q3.17423,2.87316 8.29728,2.87316q6.28939,0 10.88095,-2.81826t8.96165,-8.56458m-43.1547,-55.23058l-3.6319,-8.10707q14.63096,-16.59845 35.21175,-16.59845q7.44097,0 13.31698,3.01956t9.9213,8.39988t6.15652,12.86517t2.11123,16.39715l0,66.41212l-9.25693,0q-2.89371,0 -4.47344,-1.07972q-1.56497,-1.07972 -2.48032,-4.35549l-1.81595,-7.57636q-3.21852,3.58688 -6.27463,6.29533q-3.07088,2.72676 -6.37798,4.5568q-3.3071,1.84834 -7.05711,2.81826q-3.76478,0.98822 -8.31204,0.98822q-5.37404,0 -9.9213,-1.79344t-7.85436,-5.38031t-5.12305,-8.93059q-1.83072,-5.32541 -1.83072,-12.38936q0,-4.00779 1.07776,-7.94237q1.07776,-3.95288 3.51379,-7.53976t6.33369,-6.75284q3.88289,-3.18427 9.53744,-5.54502q5.66931,-2.36075 13.19887,-3.84308q7.51479,-1.48233 17.18511,-1.79344l0,-6.14893q0,-10.55933 -3.6319,-15.62853t-10.49709,-5.06921q-4.96065,0 -8.22346,1.42743q-3.27757,1.44573 -5.7579,3.23917t-4.50297,3.22087q-2.02265,1.44573 -4.50297,1.44573q-2.15552,0 -3.6319,-1.39083q-1.49115,-1.39083 -2.40651,-3.22087m113.26816,27.24928q3.80907,0 6.6142,-1.28103q2.81989,-1.28103 4.68014,-3.53198t2.80513,-5.43522q0.94489,-3.16597 0.94489,-6.97245q0,-7.77767 -3.75001,-12.33446q-3.76478,-4.5751 -11.29434,-4.5751q-7.51479,0 -11.27957,4.5751q-3.76478,4.5568 -3.76478,12.33446q0,3.69668 0.94489,6.88095q0.95965,3.16597 2.81989,5.47182t4.70966,3.58688t6.56991,1.28103m23.07588,59.86058q0,-3.07447 -1.49115,-5.03261q-1.49115,-1.93984 -4.06006,-3.01956q-2.55414,-1.07972 -5.99412,-1.59213q-3.42521,-0.51241 -7.26381,-0.76862q-3.85336,-0.25621 -7.94294,-0.45751t-7.97247,-0.82352q-3.39568,2.36075 -5.50691,5.54502q-2.11123,3.16597 -2.11123,7.37506q0,2.76336 1.12205,5.17901q1.12205,2.39735 3.55808,4.13589q2.43603,1.75684 6.31892,2.72676t9.50791,0.96992q5.71361,0 9.84748,-1.07972t6.82089,-2.96466q2.68702,-1.90324 3.92718,-4.5202q1.24016,-2.59866 1.24016,-5.67312m-4.06006,-106.28867l24.38986,0l0,9.443q0,4.5019 -4.38486,5.52672l-7.60338,1.73854q1.74213,5.43522 1.74213,11.89525q0,7.77767 -2.52462,14.0913q-2.52462,6.29533 -6.9833,10.70573q-4.47344,4.41039 -10.54138,6.80775q-6.0827,2.41565 -13.11029,2.41565q-2.48032,0 -4.79825,-0.31111q-2.30316,-0.31111 -4.54726,-0.82352q-3.95671,2.98296 -3.95671,6.66134q0,3.18427 2.34745,4.6666q2.36221,1.48233 6.2451,2.10454t8.84354,0.76862t10.17228,0.65881t10.17228,1.79344t8.84354,4.06269q3.88289,2.76336 6.2451,7.52146q2.34745,4.7764 2.34745,12.24296q0,6.97245 -2.76084,13.54229q-2.7756,6.55154 -8.01676,11.67565q-5.25593,5.12411 -12.90359,8.25348t-17.40656,3.12937q-9.58173,0 -16.6979,-2.30585t-11.82583,-6.14893t-7.02759,-8.87569q-2.31792,-5.01431 -2.31792,-10.44952q0,-7.37506 3.60238,-12.35276q3.60238,-4.95941 9.87701,-7.94237q-3.38092,-2.14115 -5.37404,-5.72802q-1.97835,-3.58688 -1.97835,-9.443q0,-2.34245 0.6939,-4.8679q0.70866,-2.50715 2.06694,-4.95941q1.37304,-2.47055 3.43997,-4.6666t4.87207,-3.95288q-6.4518,-4.30059 -10.12799,-11.47435t-3.6762,-16.79976q0,-7.79597 2.52462,-14.0913q2.52462,-6.31363 7.02759,-10.76063q4.50297,-4.4653 10.65949,-6.82605q6.15652,-2.34245 13.43509,-2.34245q5.46262,0 10.26087,1.37253q4.78348,1.39083 8.75496,4.04439m53.41557,36.89359l38.51885,0q0,-4.9045 -1.10729,-9.26q-1.12205,-4.35549 -3.35139,-7.64956q-2.22934,-3.27577 -5.66931,-5.16071q-3.42521,-1.90324 -7.97247,-1.90324q-8.84354,0 -13.93706,6.25873q-5.07876,6.24043 -6.48132,17.71478m52.08682,15.28083l-52.50021,0q0.48721,8.08877 2.31792,13.9815q1.81595,5.89273 4.78348,9.73581q2.9823,3.84308 7.07188,5.74632q4.08958,1.88494 9.05023,1.88494t8.56303,-1.42743t6.28939,-3.18427q2.68702,-1.73854 4.70966,-3.16597q2.02265,-1.44573 3.92718,-1.44573q2.55414,0 3.79431,2.36075l5.87601,9.2234q-3.39568,4.92281 -7.60338,8.25348q-4.22246,3.33067 -8.81401,5.32541q-4.57679,1.99474 -9.33075,2.81826t-9.2274,0.82352q-8.84354,0 -16.44692,-3.64178t-13.2284,-10.76063t-8.84354,-17.62328q-3.23328,-10.50442 -3.23328,-24.33952q0,-10.76063 2.81989,-20.24023q2.80513,-9.4796 8.06106,-16.50695q5.24116,-7.00905 12.81501,-11.10834q7.55908,-4.09929 17.067,-4.09929q8.01676,0 14.79337,3.16597q6.79137,3.18427 11.66343,9.2783t7.64767,14.96972q2.7756,8.85739 2.7756,20.24023q0,5.72802 -1.00394,7.74107q-0.98918,1.99474 -3.79431,1.99474" fill="#969696"/></g></svg>